<?xml version="1.0" encoding="UTF-8" standalone="no"?>
<!DOCTYPE svg PUBLIC "-//W3C//DTD SVG 1.1//EN"
 "http://www.w3.org/Graphics/SVG/1.1/DTD/svg11.dtd">
<!-- Generated by graphviz version 2.50.0 (0)
 -->
<!-- Pages: 1 -->
<svg width="2984pt" height="375pt"
 viewBox="0.00 0.00 2984.00 375.00" xmlns="http://www.w3.org/2000/svg" xmlns:xlink="http://www.w3.org/1999/xlink">
<g id="graph0" class="graph" transform="scale(1 1) rotate(0) translate(4 371)">
<polygon fill="white" stroke="transparent" points="-4,4 -4,-371 2980,-371 2980,4 -4,4"/>
<!-- 4786526240 -->
<g id="node1" class="node">
<title>4786526240</title>
<polygon fill="white" stroke="blue" points="1350.5,-98.5 1350.5,-134.5 1541.5,-134.5 1541.5,-98.5 1350.5,-98.5"/>
<text text-anchor="middle" x="1360.5" y="-112.8" font-family="Times,serif" font-size="14.00"> </text>
<polyline fill="none" stroke="blue" points="1370.5,-98.5 1370.5,-134.5 "/>
<text text-anchor="middle" x="1413" y="-112.8" font-family="Times,serif" font-size="14.00">data &#45;0.9965</text>
<polyline fill="none" stroke="blue" points="1455.5,-98.5 1455.5,-134.5 "/>
<text text-anchor="middle" x="1498.5" y="-112.8" font-family="Times,serif" font-size="14.00">grad &#45;0.0010</text>
</g>
<!-- 4786527488* -->
<g id="node19" class="node">
<title>4786527488*</title>
<ellipse fill="none" stroke="black" cx="1621" cy="-102.5" rx="27" ry="18"/>
<text text-anchor="middle" x="1621" y="-98.8" font-family="Times,serif" font-size="14.00">*</text>
</g>
<!-- 4786526240&#45;&gt;4786527488* -->
<g id="edge16" class="edge">
<title>4786526240&#45;&gt;4786527488*</title>
<path fill="none" stroke="black" d="M1541.6,-108.84C1556.64,-107.63 1571.34,-106.44 1583.88,-105.42"/>
<polygon fill="black" stroke="black" points="1584.18,-108.91 1593.87,-104.61 1583.62,-101.93 1584.18,-108.91"/>
</g>
<!-- 4786526240tanh -->
<g id="node2" class="node">
<title>4786526240tanh</title>
<ellipse fill="none" stroke="black" cx="1271" cy="-116.5" rx="27" ry="18"/>
<text text-anchor="middle" x="1271" y="-112.8" font-family="Times,serif" font-size="14.00">tanh</text>
</g>
<!-- 4786526240tanh&#45;&gt;4786526240 -->
<g id="edge1" class="edge">
<title>4786526240tanh&#45;&gt;4786526240</title>
<path fill="none" stroke="black" d="M1298.27,-116.5C1309.98,-116.5 1324.61,-116.5 1340.07,-116.5"/>
<polygon fill="black" stroke="black" points="1340.32,-120 1350.32,-116.5 1340.32,-113 1340.32,-120"/>
</g>
<!-- 4786436288 -->
<g id="node3" class="node">
<title>4786436288</title>
<polygon fill="white" stroke="blue" points="2468,-162.5 2468,-198.5 2659,-198.5 2659,-162.5 2468,-162.5"/>
<text text-anchor="middle" x="2478" y="-176.8" font-family="Times,serif" font-size="14.00"> </text>
<polyline fill="none" stroke="blue" points="2488,-162.5 2488,-198.5 "/>
<text text-anchor="middle" x="2530.5" y="-176.8" font-family="Times,serif" font-size="14.00">data &#45;5.2783</text>
<polyline fill="none" stroke="blue" points="2573,-162.5 2573,-198.5 "/>
<text text-anchor="middle" x="2616" y="-176.8" font-family="Times,serif" font-size="14.00">grad &#45;0.0004</text>
</g>
<!-- 4786437056tanh -->
<g id="node14" class="node">
<title>4786437056tanh</title>
<ellipse fill="none" stroke="black" cx="2722" cy="-180.5" rx="27" ry="18"/>
<text text-anchor="middle" x="2722" y="-176.8" font-family="Times,serif" font-size="14.00">tanh</text>
</g>
<!-- 4786436288&#45;&gt;4786437056tanh -->
<g id="edge19" class="edge">
<title>4786436288&#45;&gt;4786437056tanh</title>
<path fill="none" stroke="black" d="M2659.15,-180.5C2668.09,-180.5 2676.73,-180.5 2684.57,-180.5"/>
<polygon fill="black" stroke="black" points="2684.73,-184 2694.73,-180.5 2684.73,-177 2684.73,-184"/>
</g>
<!-- 4786436288+ -->
<g id="node4" class="node">
<title>4786436288+</title>
<ellipse fill="none" stroke="black" cx="2405" cy="-180.5" rx="27" ry="18"/>
<text text-anchor="middle" x="2405" y="-176.8" font-family="Times,serif" font-size="14.00">+</text>
</g>
<!-- 4786436288+&#45;&gt;4786436288 -->
<g id="edge2" class="edge">
<title>4786436288+&#45;&gt;4786436288</title>
<path fill="none" stroke="black" d="M2432.19,-180.5C2439.67,-180.5 2448.31,-180.5 2457.51,-180.5"/>
<polygon fill="black" stroke="black" points="2457.68,-184 2467.68,-180.5 2457.68,-177 2457.68,-184"/>
</g>
<!-- 4786526528 -->
<g id="node5" class="node">
<title>4786526528</title>
<polygon fill="white" stroke="blue" points="371,-275.5 371,-311.5 553,-311.5 553,-275.5 371,-275.5"/>
<text text-anchor="middle" x="381" y="-289.8" font-family="Times,serif" font-size="14.00"> </text>
<polyline fill="none" stroke="blue" points="391,-275.5 391,-311.5 "/>
<text text-anchor="middle" x="431" y="-289.8" font-family="Times,serif" font-size="14.00">data 0.1146</text>
<polyline fill="none" stroke="blue" points="471,-275.5 471,-311.5 "/>
<text text-anchor="middle" x="512" y="-289.8" font-family="Times,serif" font-size="14.00">grad 0.0002</text>
</g>
<!-- 4786526720+ -->
<g id="node8" class="node">
<title>4786526720+</title>
<ellipse fill="none" stroke="black" cx="637" cy="-293.5" rx="27" ry="18"/>
<text text-anchor="middle" x="637" y="-289.8" font-family="Times,serif" font-size="14.00">+</text>
</g>
<!-- 4786526528&#45;&gt;4786526720+ -->
<g id="edge36" class="edge">
<title>4786526528&#45;&gt;4786526720+</title>
<path fill="none" stroke="black" d="M553.05,-293.5C569.66,-293.5 586.11,-293.5 599.92,-293.5"/>
<polygon fill="black" stroke="black" points="599.92,-297 609.92,-293.5 599.92,-290 599.92,-297"/>
</g>
<!-- 4786526528* -->
<g id="node6" class="node">
<title>4786526528*</title>
<ellipse fill="none" stroke="black" cx="287" cy="-279.5" rx="27" ry="18"/>
<text text-anchor="middle" x="287" y="-275.8" font-family="Times,serif" font-size="14.00">*</text>
</g>
<!-- 4786526528*&#45;&gt;4786526528 -->
<g id="edge3" class="edge">
<title>4786526528*&#45;&gt;4786526528</title>
<path fill="none" stroke="black" d="M313.9,-281.6C326.82,-282.64 343.37,-283.98 360.68,-285.38"/>
<polygon fill="black" stroke="black" points="360.68,-288.89 370.93,-286.21 361.25,-281.92 360.68,-288.89"/>
</g>
<!-- 4786526720 -->
<g id="node7" class="node">
<title>4786526720</title>
<polygon fill="white" stroke="blue" points="704.5,-275.5 704.5,-311.5 886.5,-311.5 886.5,-275.5 704.5,-275.5"/>
<text text-anchor="middle" x="714.5" y="-289.8" font-family="Times,serif" font-size="14.00"> </text>
<polyline fill="none" stroke="blue" points="724.5,-275.5 724.5,-311.5 "/>
<text text-anchor="middle" x="764.5" y="-289.8" font-family="Times,serif" font-size="14.00">data 0.3449</text>
<polyline fill="none" stroke="blue" points="804.5,-275.5 804.5,-311.5 "/>
<text text-anchor="middle" x="845.5" y="-289.8" font-family="Times,serif" font-size="14.00">grad 0.0002</text>
</g>
<!-- 4786527104+ -->
<g id="node12" class="node">
<title>4786527104+</title>
<ellipse fill="none" stroke="black" cx="954" cy="-249.5" rx="27" ry="18"/>
<text text-anchor="middle" x="954" y="-245.8" font-family="Times,serif" font-size="14.00">+</text>
</g>
<!-- 4786526720&#45;&gt;4786527104+ -->
<g id="edge27" class="edge">
<title>4786526720&#45;&gt;4786527104+</title>
<path fill="none" stroke="black" d="M860.61,-275.48C880.46,-269.89 901.57,-263.96 918.59,-259.17"/>
<polygon fill="black" stroke="black" points="919.93,-262.43 928.61,-256.36 918.04,-255.69 919.93,-262.43"/>
</g>
<!-- 4786526720+&#45;&gt;4786526720 -->
<g id="edge4" class="edge">
<title>4786526720+&#45;&gt;4786526720</title>
<path fill="none" stroke="black" d="M664.19,-293.5C672.92,-293.5 683.23,-293.5 694.17,-293.5"/>
<polygon fill="black" stroke="black" points="694.36,-297 704.36,-293.5 694.36,-290 694.36,-297"/>
</g>
<!-- 4786526912 -->
<g id="node9" class="node">
<title>4786526912</title>
<polygon fill="white" stroke="blue" points="702,-220.5 702,-256.5 889,-256.5 889,-220.5 702,-220.5"/>
<text text-anchor="middle" x="712" y="-234.8" font-family="Times,serif" font-size="14.00"> </text>
<polyline fill="none" stroke="blue" points="722,-220.5 722,-256.5 "/>
<text text-anchor="middle" x="764.5" y="-234.8" font-family="Times,serif" font-size="14.00">data &#45;0.4500</text>
<polyline fill="none" stroke="blue" points="807,-220.5 807,-256.5 "/>
<text text-anchor="middle" x="848" y="-234.8" font-family="Times,serif" font-size="14.00">grad 0.0002</text>
</g>
<!-- 4786526912&#45;&gt;4786527104+ -->
<g id="edge40" class="edge">
<title>4786526912&#45;&gt;4786527104+</title>
<path fill="none" stroke="black" d="M889.35,-245.03C899.06,-245.71 908.47,-246.37 916.94,-246.97"/>
<polygon fill="black" stroke="black" points="916.89,-250.47 927.11,-247.68 917.38,-243.49 916.89,-250.47"/>
</g>
<!-- 4786526912* -->
<g id="node10" class="node">
<title>4786526912*</title>
<ellipse fill="none" stroke="black" cx="637" cy="-238.5" rx="27" ry="18"/>
<text text-anchor="middle" x="637" y="-234.8" font-family="Times,serif" font-size="14.00">*</text>
</g>
<!-- 4786526912*&#45;&gt;4786526912 -->
<g id="edge5" class="edge">
<title>4786526912*&#45;&gt;4786526912</title>
<path fill="none" stroke="black" d="M664.19,-238.5C672.22,-238.5 681.59,-238.5 691.55,-238.5"/>
<polygon fill="black" stroke="black" points="691.68,-242 701.68,-238.5 691.68,-235 691.68,-242"/>
</g>
<!-- 4786527104 -->
<g id="node11" class="node">
<title>4786527104</title>
<polygon fill="white" stroke="blue" points="1019,-231.5 1019,-267.5 1206,-267.5 1206,-231.5 1019,-231.5"/>
<text text-anchor="middle" x="1029" y="-245.8" font-family="Times,serif" font-size="14.00"> </text>
<polyline fill="none" stroke="blue" points="1039,-231.5 1039,-267.5 "/>
<text text-anchor="middle" x="1081.5" y="-245.8" font-family="Times,serif" font-size="14.00">data &#45;0.1051</text>
<polyline fill="none" stroke="blue" points="1124,-231.5 1124,-267.5 "/>
<text text-anchor="middle" x="1165" y="-245.8" font-family="Times,serif" font-size="14.00">grad 0.0002</text>
</g>
<!-- 4786527200tanh -->
<g id="node16" class="node">
<title>4786527200tanh</title>
<ellipse fill="none" stroke="black" cx="1271" cy="-249.5" rx="27" ry="18"/>
<text text-anchor="middle" x="1271" y="-245.8" font-family="Times,serif" font-size="14.00">tanh</text>
</g>
<!-- 4786527104&#45;&gt;4786527200tanh -->
<g id="edge29" class="edge">
<title>4786527104&#45;&gt;4786527200tanh</title>
<path fill="none" stroke="black" d="M1206.35,-249.5C1215.97,-249.5 1225.29,-249.5 1233.7,-249.5"/>
<polygon fill="black" stroke="black" points="1233.81,-253 1243.81,-249.5 1233.81,-246 1233.81,-253"/>
</g>
<!-- 4786527104+&#45;&gt;4786527104 -->
<g id="edge6" class="edge">
<title>4786527104+&#45;&gt;4786527104</title>
<path fill="none" stroke="black" d="M981.19,-249.5C989.22,-249.5 998.59,-249.5 1008.55,-249.5"/>
<polygon fill="black" stroke="black" points="1008.68,-253 1018.68,-249.5 1008.68,-246 1008.68,-253"/>
</g>
<!-- 4786437056 -->
<g id="node13" class="node">
<title>4786437056</title>
<polygon fill="white" stroke="blue" points="2785,-162.5 2785,-198.5 2976,-198.5 2976,-162.5 2785,-162.5"/>
<text text-anchor="middle" x="2795" y="-176.8" font-family="Times,serif" font-size="14.00"> </text>
<polyline fill="none" stroke="blue" points="2805,-162.5 2805,-198.5 "/>
<text text-anchor="middle" x="2847.5" y="-176.8" font-family="Times,serif" font-size="14.00">data &#45;0.9999</text>
<polyline fill="none" stroke="blue" points="2890,-162.5 2890,-198.5 "/>
<text text-anchor="middle" x="2933" y="-176.8" font-family="Times,serif" font-size="14.00">grad &#45;3.9999</text>
</g>
<!-- 4786437056tanh&#45;&gt;4786437056 -->
<g id="edge7" class="edge">
<title>4786437056tanh&#45;&gt;4786437056</title>
<path fill="none" stroke="black" d="M2749.19,-180.5C2756.67,-180.5 2765.31,-180.5 2774.51,-180.5"/>
<polygon fill="black" stroke="black" points="2774.68,-184 2784.68,-180.5 2774.68,-177 2774.68,-184"/>
</g>
<!-- 4786527200 -->
<g id="node15" class="node">
<title>4786527200</title>
<polygon fill="white" stroke="blue" points="1352.5,-231.5 1352.5,-267.5 1539.5,-267.5 1539.5,-231.5 1352.5,-231.5"/>
<text text-anchor="middle" x="1362.5" y="-245.8" font-family="Times,serif" font-size="14.00"> </text>
<polyline fill="none" stroke="blue" points="1372.5,-231.5 1372.5,-267.5 "/>
<text text-anchor="middle" x="1415" y="-245.8" font-family="Times,serif" font-size="14.00">data &#45;0.1047</text>
<polyline fill="none" stroke="blue" points="1457.5,-231.5 1457.5,-267.5 "/>
<text text-anchor="middle" x="1498.5" y="-245.8" font-family="Times,serif" font-size="14.00">grad 0.0002</text>
</g>
<!-- 4786435712* -->
<g id="node32" class="node">
<title>4786435712*</title>
<ellipse fill="none" stroke="black" cx="1621" cy="-208.5" rx="27" ry="18"/>
<text text-anchor="middle" x="1621" y="-204.8" font-family="Times,serif" font-size="14.00">*</text>
</g>
<!-- 4786527200&#45;&gt;4786435712* -->
<g id="edge20" class="edge">
<title>4786527200&#45;&gt;4786435712*</title>
<path fill="none" stroke="black" d="M1523.13,-231.46C1544.8,-226.32 1567.36,-220.98 1585.25,-216.74"/>
<polygon fill="black" stroke="black" points="1586.27,-220.09 1595.2,-214.38 1584.66,-213.28 1586.27,-220.09"/>
</g>
<!-- 4786527200tanh&#45;&gt;4786527200 -->
<g id="edge8" class="edge">
<title>4786527200tanh&#45;&gt;4786527200</title>
<path fill="none" stroke="black" d="M1298.27,-249.5C1310.49,-249.5 1325.88,-249.5 1342.06,-249.5"/>
<polygon fill="black" stroke="black" points="1342.22,-253 1352.22,-249.5 1342.22,-246 1342.22,-253"/>
</g>
<!-- 4786423040 -->
<g id="node17" class="node">
<title>4786423040</title>
<polygon fill="green" stroke="green" points="7,-179.5 7,-215.5 217,-215.5 217,-179.5 7,-179.5"/>
<text text-anchor="middle" x="29" y="-193.8" font-family="Times,serif" font-size="14.00">input</text>
<polyline fill="none" stroke="green" points="51,-179.5 51,-215.5 "/>
<text text-anchor="middle" x="91" y="-193.8" font-family="Times,serif" font-size="14.00">data 2.0000</text>
<polyline fill="none" stroke="green" points="131,-179.5 131,-215.5 "/>
<text text-anchor="middle" x="174" y="-193.8" font-family="Times,serif" font-size="14.00">grad &#45;0.0047</text>
</g>
<!-- 4786423040&#45;&gt;4786526528* -->
<g id="edge28" class="edge">
<title>4786423040&#45;&gt;4786526528*</title>
<path fill="none" stroke="black" d="M151.39,-215.7C182.7,-230.54 226.32,-251.21 255.33,-264.96"/>
<polygon fill="black" stroke="black" points="254.03,-268.22 264.56,-269.34 257.03,-261.89 254.03,-268.22"/>
</g>
<!-- 4786525568* -->
<g id="node22" class="node">
<title>4786525568*</title>
<ellipse fill="none" stroke="black" cx="287" cy="-87.5" rx="27" ry="18"/>
<text text-anchor="middle" x="287" y="-83.8" font-family="Times,serif" font-size="14.00">*</text>
</g>
<!-- 4786423040&#45;&gt;4786525568* -->
<g id="edge17" class="edge">
<title>4786423040&#45;&gt;4786525568*</title>
<path fill="none" stroke="black" d="M141.57,-179.34C173.85,-158.81 226.05,-125.62 258.07,-105.26"/>
<polygon fill="black" stroke="black" points="259.97,-108.2 266.53,-99.88 256.22,-102.29 259.97,-108.2"/>
</g>
<!-- 4786527488 -->
<g id="node18" class="node">
<title>4786527488</title>
<polygon fill="white" stroke="blue" points="1693,-84.5 1693,-120.5 1884,-120.5 1884,-84.5 1693,-84.5"/>
<text text-anchor="middle" x="1703" y="-98.8" font-family="Times,serif" font-size="14.00"> </text>
<polyline fill="none" stroke="blue" points="1713,-84.5 1713,-120.5 "/>
<text text-anchor="middle" x="1755.5" y="-98.8" font-family="Times,serif" font-size="14.00">data &#45;2.3801</text>
<polyline fill="none" stroke="blue" points="1798,-84.5 1798,-120.5 "/>
<text text-anchor="middle" x="1841" y="-98.8" font-family="Times,serif" font-size="14.00">grad &#45;0.0004</text>
</g>
<!-- 4786527680+ -->
<g id="node25" class="node">
<title>4786527680+</title>
<ellipse fill="none" stroke="black" cx="2022" cy="-153.5" rx="27" ry="18"/>
<text text-anchor="middle" x="2022" y="-149.8" font-family="Times,serif" font-size="14.00">+</text>
</g>
<!-- 4786527488&#45;&gt;4786527680+ -->
<g id="edge35" class="edge">
<title>4786527488&#45;&gt;4786527680+</title>
<path fill="none" stroke="black" d="M1871.44,-120.55C1910.77,-129.22 1955.8,-139.14 1986.09,-145.81"/>
<polygon fill="black" stroke="black" points="1985.64,-149.29 1996.15,-148.03 1987.14,-142.46 1985.64,-149.29"/>
</g>
<!-- 4786527488*&#45;&gt;4786527488 -->
<g id="edge9" class="edge">
<title>4786527488*&#45;&gt;4786527488</title>
<path fill="none" stroke="black" d="M1648.22,-102.5C1658.08,-102.5 1669.98,-102.5 1682.62,-102.5"/>
<polygon fill="black" stroke="black" points="1682.9,-106 1692.9,-102.5 1682.9,-99 1682.9,-106"/>
</g>
<!-- 4786423088 -->
<g id="node20" class="node">
<title>4786423088</title>
<polygon fill="green" stroke="green" points="357,-165.5 357,-201.5 567,-201.5 567,-165.5 357,-165.5"/>
<text text-anchor="middle" x="379" y="-179.8" font-family="Times,serif" font-size="14.00">input</text>
<polyline fill="none" stroke="green" points="401,-165.5 401,-201.5 "/>
<text text-anchor="middle" x="441" y="-179.8" font-family="Times,serif" font-size="14.00">data 3.0000</text>
<polyline fill="none" stroke="green" points="481,-165.5 481,-201.5 "/>
<text text-anchor="middle" x="524" y="-179.8" font-family="Times,serif" font-size="14.00">grad &#45;0.0039</text>
</g>
<!-- 4786423088&#45;&gt;4786526912* -->
<g id="edge22" class="edge">
<title>4786423088&#45;&gt;4786526912*</title>
<path fill="none" stroke="black" d="M541.4,-201.57C552.43,-204.6 563.56,-207.94 574,-211.5 584.33,-215.03 595.34,-219.55 605.17,-223.89"/>
<polygon fill="black" stroke="black" points="603.98,-227.19 614.54,-228.12 606.86,-220.81 603.98,-227.19"/>
</g>
<!-- 4786525952* -->
<g id="node36" class="node">
<title>4786525952*</title>
<ellipse fill="none" stroke="black" cx="637" cy="-128.5" rx="27" ry="18"/>
<text text-anchor="middle" x="637" y="-124.8" font-family="Times,serif" font-size="14.00">*</text>
</g>
<!-- 4786423088&#45;&gt;4786525952* -->
<g id="edge37" class="edge">
<title>4786423088&#45;&gt;4786525952*</title>
<path fill="none" stroke="black" d="M544.74,-165.46C554.67,-162.72 564.62,-159.73 574,-156.5 584.58,-152.86 595.82,-148.08 605.78,-143.5"/>
<polygon fill="black" stroke="black" points="607.32,-146.65 614.88,-139.22 604.34,-140.31 607.32,-146.65"/>
</g>
<!-- 4786525568 -->
<g id="node21" class="node">
<title>4786525568</title>
<polygon fill="white" stroke="blue" points="366.5,-55.5 366.5,-91.5 557.5,-91.5 557.5,-55.5 366.5,-55.5"/>
<text text-anchor="middle" x="376.5" y="-69.8" font-family="Times,serif" font-size="14.00"> </text>
<polyline fill="none" stroke="blue" points="386.5,-55.5 386.5,-91.5 "/>
<text text-anchor="middle" x="429" y="-69.8" font-family="Times,serif" font-size="14.00">data &#45;1.2097</text>
<polyline fill="none" stroke="blue" points="471.5,-55.5 471.5,-91.5 "/>
<text text-anchor="middle" x="514.5" y="-69.8" font-family="Times,serif" font-size="14.00">grad &#45;0.0000</text>
</g>
<!-- 4786525760+ -->
<g id="node29" class="node">
<title>4786525760+</title>
<ellipse fill="none" stroke="black" cx="637" cy="-73.5" rx="27" ry="18"/>
<text text-anchor="middle" x="637" y="-69.8" font-family="Times,serif" font-size="14.00">+</text>
</g>
<!-- 4786525568&#45;&gt;4786525760+ -->
<g id="edge31" class="edge">
<title>4786525568&#45;&gt;4786525760+</title>
<path fill="none" stroke="black" d="M557.6,-73.5C572.49,-73.5 587.05,-73.5 599.51,-73.5"/>
<polygon fill="black" stroke="black" points="599.87,-77 609.87,-73.5 599.87,-70 599.87,-77"/>
</g>
<!-- 4786525568*&#45;&gt;4786525568 -->
<g id="edge10" class="edge">
<title>4786525568*&#45;&gt;4786525568</title>
<path fill="none" stroke="black" d="M313.9,-85.4C325.65,-84.45 340.41,-83.26 356,-82"/>
<polygon fill="black" stroke="black" points="356.66,-85.46 366.35,-81.16 356.1,-78.48 356.66,-85.46"/>
</g>
<!-- 4786423184 -->
<g id="node23" class="node">
<title>4786423184</title>
<polygon fill="red" stroke="red" points="0,-69.5 0,-105.5 224,-105.5 224,-69.5 0,-69.5"/>
<text text-anchor="middle" x="26.5" y="-83.8" font-family="Times,serif" font-size="14.00">weight</text>
<polyline fill="none" stroke="red" points="53,-69.5 53,-105.5 "/>
<text text-anchor="middle" x="95.5" y="-83.8" font-family="Times,serif" font-size="14.00">data &#45;0.6056</text>
<polyline fill="none" stroke="red" points="138,-69.5 138,-105.5 "/>
<text text-anchor="middle" x="181" y="-83.8" font-family="Times,serif" font-size="14.00">grad &#45;0.0076</text>
</g>
<!-- 4786423184&#45;&gt;4786525568* -->
<g id="edge18" class="edge">
<title>4786423184&#45;&gt;4786525568*</title>
<path fill="none" stroke="black" d="M224.03,-87.5C233.17,-87.5 241.91,-87.5 249.8,-87.5"/>
<polygon fill="black" stroke="black" points="249.98,-91 259.98,-87.5 249.98,-84 249.98,-91"/>
</g>
<!-- 4786527680 -->
<g id="node24" class="node">
<title>4786527680</title>
<polygon fill="white" stroke="blue" points="2151,-139.5 2151,-175.5 2342,-175.5 2342,-139.5 2151,-139.5"/>
<text text-anchor="middle" x="2161" y="-153.8" font-family="Times,serif" font-size="14.00"> </text>
<polyline fill="none" stroke="blue" points="2171,-139.5 2171,-175.5 "/>
<text text-anchor="middle" x="2213.5" y="-153.8" font-family="Times,serif" font-size="14.00">data &#45;5.3381</text>
<polyline fill="none" stroke="blue" points="2256,-139.5 2256,-175.5 "/>
<text text-anchor="middle" x="2299" y="-153.8" font-family="Times,serif" font-size="14.00">grad &#45;0.0004</text>
</g>
<!-- 4786527680&#45;&gt;4786436288+ -->
<g id="edge33" class="edge">
<title>4786527680&#45;&gt;4786436288+</title>
<path fill="none" stroke="black" d="M2342.15,-171.41C2351.37,-172.76 2360.27,-174.07 2368.31,-175.25"/>
<polygon fill="black" stroke="black" points="2367.94,-178.74 2378.34,-176.73 2368.95,-171.81 2367.94,-178.74"/>
</g>
<!-- 4786527680+&#45;&gt;4786527680 -->
<g id="edge11" class="edge">
<title>4786527680+&#45;&gt;4786527680</title>
<path fill="none" stroke="black" d="M2049.4,-153.97C2072.19,-154.38 2106.69,-155 2140.42,-155.61"/>
<polygon fill="black" stroke="black" points="2140.79,-159.12 2150.85,-155.8 2140.92,-152.12 2140.79,-159.12"/>
</g>
<!-- 4786423232 -->
<g id="node26" class="node">
<title>4786423232</title>
<polygon fill="yellow" stroke="yellow" points="360,-0.5 360,-36.5 564,-36.5 564,-0.5 360,-0.5"/>
<text text-anchor="middle" x="379" y="-14.8" font-family="Times,serif" font-size="14.00">bias</text>
<polyline fill="none" stroke="yellow" points="398,-0.5 398,-36.5 "/>
<text text-anchor="middle" x="438" y="-14.8" font-family="Times,serif" font-size="14.00">data 0.4360</text>
<polyline fill="none" stroke="yellow" points="478,-0.5 478,-36.5 "/>
<text text-anchor="middle" x="521" y="-14.8" font-family="Times,serif" font-size="14.00">grad &#45;0.0038</text>
</g>
<!-- 4786423232&#45;&gt;4786525760+ -->
<g id="edge34" class="edge">
<title>4786423232&#45;&gt;4786525760+</title>
<path fill="none" stroke="black" d="M544.74,-36.54C554.67,-39.28 564.62,-42.27 574,-45.5 584.58,-49.14 595.82,-53.92 605.78,-58.5"/>
<polygon fill="black" stroke="black" points="604.34,-61.69 614.88,-62.78 607.32,-55.35 604.34,-61.69"/>
</g>
<!-- 4786423280 -->
<g id="node27" class="node">
<title>4786423280</title>
<polygon fill="red" stroke="red" points="350,-110.5 350,-146.5 574,-146.5 574,-110.5 350,-110.5"/>
<text text-anchor="middle" x="376.5" y="-124.8" font-family="Times,serif" font-size="14.00">weight</text>
<polyline fill="none" stroke="red" points="403,-110.5 403,-146.5 "/>
<text text-anchor="middle" x="445.5" y="-124.8" font-family="Times,serif" font-size="14.00">data &#45;0.8026</text>
<polyline fill="none" stroke="red" points="488,-110.5 488,-146.5 "/>
<text text-anchor="middle" x="531" y="-124.8" font-family="Times,serif" font-size="14.00">grad &#45;0.0115</text>
</g>
<!-- 4786423280&#45;&gt;4786525952* -->
<g id="edge24" class="edge">
<title>4786423280&#45;&gt;4786525952*</title>
<path fill="none" stroke="black" d="M574.03,-128.5C583.17,-128.5 591.91,-128.5 599.8,-128.5"/>
<polygon fill="black" stroke="black" points="599.98,-132 609.98,-128.5 599.98,-125 599.98,-132"/>
</g>
<!-- 4786525760 -->
<g id="node28" class="node">
<title>4786525760</title>
<polygon fill="white" stroke="blue" points="700,-55.5 700,-91.5 891,-91.5 891,-55.5 700,-55.5"/>
<text text-anchor="middle" x="710" y="-69.8" font-family="Times,serif" font-size="14.00"> </text>
<polyline fill="none" stroke="blue" points="720,-55.5 720,-91.5 "/>
<text text-anchor="middle" x="762.5" y="-69.8" font-family="Times,serif" font-size="14.00">data &#45;0.7733</text>
<polyline fill="none" stroke="blue" points="805,-55.5 805,-91.5 "/>
<text text-anchor="middle" x="848" y="-69.8" font-family="Times,serif" font-size="14.00">grad &#45;0.0000</text>
</g>
<!-- 4786526144+ -->
<g id="node41" class="node">
<title>4786526144+</title>
<ellipse fill="none" stroke="black" cx="954" cy="-116.5" rx="27" ry="18"/>
<text text-anchor="middle" x="954" y="-112.8" font-family="Times,serif" font-size="14.00">+</text>
</g>
<!-- 4786525760&#45;&gt;4786526144+ -->
<g id="edge25" class="edge">
<title>4786525760&#45;&gt;4786526144+</title>
<path fill="none" stroke="black" d="M862.42,-91.61C881.92,-96.97 902.48,-102.62 919.07,-107.18"/>
<polygon fill="black" stroke="black" points="918.28,-110.59 928.85,-109.86 920.13,-103.84 918.28,-110.59"/>
</g>
<!-- 4786525760+&#45;&gt;4786525760 -->
<g id="edge12" class="edge">
<title>4786525760+&#45;&gt;4786525760</title>
<path fill="none" stroke="black" d="M664.19,-73.5C671.67,-73.5 680.31,-73.5 689.51,-73.5"/>
<polygon fill="black" stroke="black" points="689.68,-77 699.68,-73.5 689.68,-70 689.68,-77"/>
</g>
<!-- 4786423376 -->
<g id="node30" class="node">
<title>4786423376</title>
<polygon fill="red" stroke="red" points="2.5,-261.5 2.5,-297.5 221.5,-297.5 221.5,-261.5 2.5,-261.5"/>
<text text-anchor="middle" x="29" y="-275.8" font-family="Times,serif" font-size="14.00">weight</text>
<polyline fill="none" stroke="red" points="55.5,-261.5 55.5,-297.5 "/>
<text text-anchor="middle" x="95.5" y="-275.8" font-family="Times,serif" font-size="14.00">data 0.0542</text>
<polyline fill="none" stroke="red" points="135.5,-261.5 135.5,-297.5 "/>
<text text-anchor="middle" x="178.5" y="-275.8" font-family="Times,serif" font-size="14.00">grad &#45;0.0304</text>
</g>
<!-- 4786423376&#45;&gt;4786526528* -->
<g id="edge41" class="edge">
<title>4786423376&#45;&gt;4786526528*</title>
<path fill="none" stroke="black" d="M221.58,-279.5C231.51,-279.5 241.02,-279.5 249.55,-279.5"/>
<polygon fill="black" stroke="black" points="249.77,-283 259.77,-279.5 249.77,-276 249.77,-283"/>
</g>
<!-- 4786435712 -->
<g id="node31" class="node">
<title>4786435712</title>
<polygon fill="white" stroke="blue" points="1929,-190.5 1929,-226.5 2115,-226.5 2115,-190.5 1929,-190.5"/>
<text text-anchor="middle" x="1939" y="-204.8" font-family="Times,serif" font-size="14.00"> </text>
<polyline fill="none" stroke="blue" points="1949,-190.5 1949,-226.5 "/>
<text text-anchor="middle" x="1989" y="-204.8" font-family="Times,serif" font-size="14.00">data 0.0598</text>
<polyline fill="none" stroke="blue" points="2029,-190.5 2029,-226.5 "/>
<text text-anchor="middle" x="2072" y="-204.8" font-family="Times,serif" font-size="14.00">grad &#45;0.0004</text>
</g>
<!-- 4786435712&#45;&gt;4786436288+ -->
<g id="edge21" class="edge">
<title>4786435712&#45;&gt;4786436288+</title>
<path fill="none" stroke="black" d="M2115.15,-202.06C2178.87,-197.56 2265.6,-191.33 2342,-185.5 2350.42,-184.86 2359.48,-184.14 2368.01,-183.45"/>
<polygon fill="black" stroke="black" points="2368.38,-186.94 2378.06,-182.64 2367.81,-179.96 2368.38,-186.94"/>
</g>
<!-- 4786435712*&#45;&gt;4786435712 -->
<g id="edge13" class="edge">
<title>4786435712*&#45;&gt;4786435712</title>
<path fill="none" stroke="black" d="M1648.18,-208.5C1702.16,-208.5 1828.34,-208.5 1918.96,-208.5"/>
<polygon fill="black" stroke="black" points="1918.99,-212 1928.99,-208.5 1918.99,-205 1918.99,-212"/>
</g>
<!-- 4786423424 -->
<g id="node33" class="node">
<title>4786423424</title>
<polygon fill="yellow" stroke="yellow" points="360,-330.5 360,-366.5 564,-366.5 564,-330.5 360,-330.5"/>
<text text-anchor="middle" x="379" y="-344.8" font-family="Times,serif" font-size="14.00">bias</text>
<polyline fill="none" stroke="yellow" points="398,-330.5 398,-366.5 "/>
<text text-anchor="middle" x="438" y="-344.8" font-family="Times,serif" font-size="14.00">data 0.2288</text>
<polyline fill="none" stroke="yellow" points="478,-330.5 478,-366.5 "/>
<text text-anchor="middle" x="521" y="-344.8" font-family="Times,serif" font-size="14.00">grad &#45;0.0152</text>
</g>
<!-- 4786423424&#45;&gt;4786526720+ -->
<g id="edge32" class="edge">
<title>4786423424&#45;&gt;4786526720+</title>
<path fill="none" stroke="black" d="M544.74,-330.46C554.67,-327.72 564.62,-324.73 574,-321.5 584.58,-317.86 595.82,-313.08 605.78,-308.5"/>
<polygon fill="black" stroke="black" points="607.32,-311.65 614.88,-304.22 604.34,-305.31 607.32,-311.65"/>
</g>
<!-- 4786423472 -->
<g id="node34" class="node">
<title>4786423472</title>
<polygon fill="red" stroke="red" points="350,-220.5 350,-256.5 574,-256.5 574,-220.5 350,-220.5"/>
<text text-anchor="middle" x="376.5" y="-234.8" font-family="Times,serif" font-size="14.00">weight</text>
<polyline fill="none" stroke="red" points="403,-220.5 403,-256.5 "/>
<text text-anchor="middle" x="445.5" y="-234.8" font-family="Times,serif" font-size="14.00">data &#45;0.1546</text>
<polyline fill="none" stroke="red" points="488,-220.5 488,-256.5 "/>
<text text-anchor="middle" x="531" y="-234.8" font-family="Times,serif" font-size="14.00">grad &#45;0.0457</text>
</g>
<!-- 4786423472&#45;&gt;4786526912* -->
<g id="edge23" class="edge">
<title>4786423472&#45;&gt;4786526912*</title>
<path fill="none" stroke="black" d="M574.03,-238.5C583.17,-238.5 591.91,-238.5 599.8,-238.5"/>
<polygon fill="black" stroke="black" points="599.98,-242 609.98,-238.5 599.98,-235 599.98,-242"/>
</g>
<!-- 4786525952 -->
<g id="node35" class="node">
<title>4786525952</title>
<polygon fill="white" stroke="blue" points="700,-110.5 700,-146.5 891,-146.5 891,-110.5 700,-110.5"/>
<text text-anchor="middle" x="710" y="-124.8" font-family="Times,serif" font-size="14.00"> </text>
<polyline fill="none" stroke="blue" points="720,-110.5 720,-146.5 "/>
<text text-anchor="middle" x="762.5" y="-124.8" font-family="Times,serif" font-size="14.00">data &#45;2.4042</text>
<polyline fill="none" stroke="blue" points="805,-110.5 805,-146.5 "/>
<text text-anchor="middle" x="848" y="-124.8" font-family="Times,serif" font-size="14.00">grad &#45;0.0000</text>
</g>
<!-- 4786525952&#45;&gt;4786526144+ -->
<g id="edge39" class="edge">
<title>4786525952&#45;&gt;4786526144+</title>
<path fill="none" stroke="black" d="M891.15,-121.24C900.18,-120.55 908.9,-119.88 916.81,-119.28"/>
<polygon fill="black" stroke="black" points="917.33,-122.75 927.04,-118.49 916.8,-115.77 917.33,-122.75"/>
</g>
<!-- 4786525952*&#45;&gt;4786525952 -->
<g id="edge14" class="edge">
<title>4786525952*&#45;&gt;4786525952</title>
<path fill="none" stroke="black" d="M664.19,-128.5C671.67,-128.5 680.31,-128.5 689.51,-128.5"/>
<polygon fill="black" stroke="black" points="689.68,-132 699.68,-128.5 689.68,-125 689.68,-132"/>
</g>
<!-- 4786423616 -->
<g id="node37" class="node">
<title>4786423616</title>
<polygon fill="red" stroke="red" points="1338.5,-43.5 1338.5,-79.5 1553.5,-79.5 1553.5,-43.5 1338.5,-43.5"/>
<text text-anchor="middle" x="1365" y="-57.8" font-family="Times,serif" font-size="14.00">weight</text>
<polyline fill="none" stroke="red" points="1391.5,-43.5 1391.5,-79.5 "/>
<text text-anchor="middle" x="1431.5" y="-57.8" font-family="Times,serif" font-size="14.00">data 2.8456</text>
<polyline fill="none" stroke="red" points="1471.5,-43.5 1471.5,-79.5 "/>
<text text-anchor="middle" x="1512.5" y="-57.8" font-family="Times,serif" font-size="14.00">grad 4.5716</text>
</g>
<!-- 4786423616&#45;&gt;4786527488* -->
<g id="edge26" class="edge">
<title>4786423616&#45;&gt;4786527488*</title>
<path fill="none" stroke="black" d="M1523.13,-79.54C1544.8,-84.68 1567.36,-90.02 1585.25,-94.26"/>
<polygon fill="black" stroke="black" points="1584.66,-97.72 1595.2,-96.62 1586.27,-90.91 1584.66,-97.72"/>
</g>
<!-- 4786423664 -->
<g id="node38" class="node">
<title>4786423664</title>
<polygon fill="yellow" stroke="yellow" points="1684,-139.5 1684,-175.5 1893,-175.5 1893,-139.5 1684,-139.5"/>
<text text-anchor="middle" x="1703" y="-153.8" font-family="Times,serif" font-size="14.00">bias</text>
<polyline fill="none" stroke="yellow" points="1722,-139.5 1722,-175.5 "/>
<text text-anchor="middle" x="1764.5" y="-153.8" font-family="Times,serif" font-size="14.00">data &#45;3.4168</text>
<polyline fill="none" stroke="yellow" points="1807,-139.5 1807,-175.5 "/>
<text text-anchor="middle" x="1850" y="-153.8" font-family="Times,serif" font-size="14.00">grad &#45;4.5882</text>
</g>
<!-- 4786423664&#45;&gt;4786527680+ -->
<g id="edge42" class="edge">
<title>4786423664&#45;&gt;4786527680+</title>
<path fill="none" stroke="black" d="M1893.06,-155.71C1925.93,-155.14 1960.12,-154.55 1984.88,-154.12"/>
<polygon fill="black" stroke="black" points="1984.94,-157.62 1994.88,-153.95 1984.82,-150.62 1984.94,-157.62"/>
</g>
<!-- 4786423712 -->
<g id="node39" class="node">
<title>4786423712</title>
<polygon fill="red" stroke="red" points="1334,-176.5 1334,-212.5 1558,-212.5 1558,-176.5 1334,-176.5"/>
<text text-anchor="middle" x="1360.5" y="-190.8" font-family="Times,serif" font-size="14.00">weight</text>
<polyline fill="none" stroke="red" points="1387,-176.5 1387,-212.5 "/>
<text text-anchor="middle" x="1429.5" y="-190.8" font-family="Times,serif" font-size="14.00">data &#45;0.6821</text>
<polyline fill="none" stroke="red" points="1472,-176.5 1472,-212.5 "/>
<text text-anchor="middle" x="1515" y="-190.8" font-family="Times,serif" font-size="14.00">grad &#45;1.1082</text>
</g>
<!-- 4786423712&#45;&gt;4786435712* -->
<g id="edge38" class="edge">
<title>4786423712&#45;&gt;4786435712*</title>
<path fill="none" stroke="black" d="M1558.03,-203.49C1567.17,-204.22 1575.91,-204.93 1583.8,-205.57"/>
<polygon fill="black" stroke="black" points="1583.73,-209.08 1593.98,-206.39 1584.29,-202.1 1583.73,-209.08"/>
</g>
<!-- 4786526144 -->
<g id="node40" class="node">
<title>4786526144</title>
<polygon fill="white" stroke="blue" points="1017,-98.5 1017,-134.5 1208,-134.5 1208,-98.5 1017,-98.5"/>
<text text-anchor="middle" x="1027" y="-112.8" font-family="Times,serif" font-size="14.00"> </text>
<polyline fill="none" stroke="blue" points="1037,-98.5 1037,-134.5 "/>
<text text-anchor="middle" x="1079.5" y="-112.8" font-family="Times,serif" font-size="14.00">data &#45;3.1775</text>
<polyline fill="none" stroke="blue" points="1122,-98.5 1122,-134.5 "/>
<text text-anchor="middle" x="1165" y="-112.8" font-family="Times,serif" font-size="14.00">grad &#45;0.0000</text>
</g>
<!-- 4786526144&#45;&gt;4786526240tanh -->
<g id="edge30" class="edge">
<title>4786526144&#45;&gt;4786526240tanh</title>
<path fill="none" stroke="black" d="M1208.15,-116.5C1217.09,-116.5 1225.73,-116.5 1233.57,-116.5"/>
<polygon fill="black" stroke="black" points="1233.73,-120 1243.73,-116.5 1233.73,-113 1233.73,-120"/>
</g>
<!-- 4786526144+&#45;&gt;4786526144 -->
<g id="edge15" class="edge">
<title>4786526144+&#45;&gt;4786526144</title>
<path fill="none" stroke="black" d="M981.19,-116.5C988.67,-116.5 997.31,-116.5 1006.51,-116.5"/>
<polygon fill="black" stroke="black" points="1006.68,-120 1016.68,-116.5 1006.68,-113 1006.68,-120"/>
</g>
</g>
</svg>
